<!-- Generated by IcoMoon.io -->
<svg version="1.1" xmlns="http://www.w3.org/2000/svg" width="512" height="512" viewBox="0 0 512 512">
<title></title>
<g id="icomoon-ignore">
</g>
<path fill="#cdcdcd" d="M238.208 110.582c-10.45-10.45-10.45-27.402 0-37.852 10.45-10.455 27.397-10.455 37.852 0l164.352 164.347c5.223 5.227 7.834 12.073 7.834 18.923s-2.616 13.701-7.834 18.923l-164.352 164.347c-10.455 10.455-27.402 10.455-37.852 0-10.45-10.45-10.45-27.397 0-37.852l145.418-145.418-145.418-145.418zM217.017 256l-145.418 145.418c-10.45 10.455-10.45 27.402 0 37.852 10.45 10.455 27.397 10.455 37.852 0l164.352-164.347c5.223-5.228 7.834-12.073 7.834-18.923s-2.616-13.701-7.834-18.923l-164.352-164.347c-10.455-10.455-27.402-10.455-37.852 0-10.45 10.45-10.45 27.402 0 37.852l145.418 145.418z"></path>
</svg>
